<!DOCTYPE svg PUBLIC "-//W3C//DTD SVG 20010904//EN" "http://www.w3.org/TR/2001/REC-SVG-20010904/DTD/svg10.dtd">
<svg version="1.0" xmlns="http://www.w3.org/2000/svg" width="100px" height="100px" viewBox="0 0 1000 1000" preserveAspectRatio="xMidYMid meet">
<g id="layer101" fill="#000000" stroke="none">
</g>
<g id="layer102" fill="#333333" stroke="none">
<path d="M365 936 c-73 -23 -128 -58 -187 -117 -179 -178 -178 -460 1 -640 264 -263 709 -119 771 250 28 166 -53 351 -194 445 -85 56 -153 76 -260 75 -50 0 -109 -6 -131 -13z m241 -289 c36 -42 33 -100 -6 -137 -27 -25 -28 -29 -14 -41 28 -23 35 -57 19 -95 -18 -44 -46 -54 -151 -54 l-84 0 0 181 0 181 106 -4 c102 -3 107 -4 130 -31z"/>
<path d="M420 580 l0 -60 64 0 c45 0 69 5 80 16 17 17 21 51 8 72 -11 16 -67 32 -114 32 l-38 0 0 -60z"/>
<path d="M420 415 l0 -55 45 0 c64 0 95 17 95 51 0 38 -33 59 -92 59 l-48 0 0 -55z"/>
</g>


</svg>