<svg id="svg" version="1.1" xmlns="http://www.w3.org/2000/svg" xmlns:xlink="http://www.w3.org/1999/xlink" width="400" height="400" viewBox="0, 0, 400,400"><g id="svgg"><path id="path0" d="M0.000 200.000 L 0.000 400.000 200.000 400.000 L 400.000 400.000 400.000 200.000 L 400.000 0.000 200.000 0.000 L 0.000 0.000 0.000 200.000 M215.200 18.012 C 218.170 18.246,221.590 18.603,222.800 18.804 C 224.010 19.005,226.260 19.370,227.800 19.617 C 233.803 20.576,244.211 22.924,249.000 24.399 C 255.393 26.367,264.918 29.766,268.694 31.426 C 269.412 31.742,270.675 32.294,271.500 32.654 C 297.772 44.110,322.617 63.942,340.650 87.852 C 343.453 91.568,349.600 100.617,349.600 101.026 C 349.600 101.164,349.954 101.773,350.386 102.380 C 352.067 104.741,357.855 115.902,360.768 122.400 C 362.888 127.128,367.203 139.142,368.671 144.400 C 369.658 147.938,371.600 155.647,371.997 157.600 C 372.198 158.590,372.738 161.171,373.196 163.336 C 377.065 181.623,376.606 207.096,372.040 227.400 C 371.843 228.280,371.485 229.900,371.245 231.000 C 370.256 235.548,368.990 239.922,366.610 247.017 C 364.512 253.272,362.714 258.054,361.164 261.500 C 360.744 262.435,360.028 264.055,359.573 265.100 C 356.498 272.166,350.486 282.900,344.956 291.200 C 332.021 310.614,312.907 329.576,295.524 340.239 C 293.696 341.361,290.940 343.057,289.400 344.008 C 284.488 347.042,268.654 355.200,267.679 355.200 C 267.506 355.200,265.303 356.032,262.783 357.050 C 255.798 359.869,248.565 361.944,239.400 363.759 C 234.901 364.650,232.072 365.074,224.501 365.991 C 206.576 368.163,173.132 367.094,154.600 363.755 C 148.760 362.703,139.968 359.991,134.504 357.556 C 133.572 357.140,132.644 356.800,132.442 356.800 C 132.241 356.800,131.384 356.450,130.538 356.023 C 129.692 355.596,126.120 353.820,122.600 352.077 C 114.277 347.956,114.821 348.267,105.800 342.470 C 103.257 340.835,99.222 337.907,95.007 334.636 C 81.002 323.769,64.789 307.030,56.105 294.473 C 55.393 293.443,54.178 291.700,53.405 290.600 C 51.700 288.172,48.155 282.684,47.140 280.900 C 46.733 280.185,46.017 278.925,45.548 278.100 C 43.135 273.851,38.049 263.354,36.375 259.168 C 29.920 243.029,26.844 230.834,24.325 211.400 C 23.618 205.940,23.622 179.883,24.332 175.200 C 26.046 163.878,26.473 161.197,26.843 159.400 C 33.929 125.044,51.145 93.483,76.276 68.784 C 82.414 62.752,83.435 61.810,87.972 58.000 C 92.935 53.832,99.884 48.684,104.757 45.564 C 108.819 42.964,113.656 40.000,113.837 40.000 C 113.934 40.000,115.136 39.320,116.507 38.488 C 124.824 33.445,142.048 26.519,154.800 23.090 C 165.628 20.178,181.742 17.763,192.200 17.485 C 198.302 17.323,209.827 17.587,215.200 18.012 M149.696 124.084 C 149.302 124.560,149.219 139.158,149.299 194.242 L 149.400 263.800 154.400 263.794 C 157.150 263.791,164.890 263.557,171.600 263.273 C 178.310 262.990,188.840 262.599,195.000 262.404 C 226.615 261.406,231.237 260.413,238.249 253.110 C 249.422 241.471,253.209 226.680,248.546 212.895 C 246.375 206.478,244.185 203.357,235.942 194.937 C 228.126 186.953,228.099 186.762,233.949 180.653 C 245.258 168.843,246.627 157.379,238.659 141.225 C 234.785 133.370,228.429 128.540,219.400 126.590 C 208.074 124.143,205.864 123.996,176.398 123.724 C 153.378 123.512,150.135 123.556,149.696 124.084 M201.600 140.549 C 216.786 143.693,222.557 148.824,222.576 159.200 C 222.605 175.265,210.895 181.589,181.100 181.597 L 168.800 181.600 168.800 160.547 L 168.800 139.493 183.700 139.710 C 194.913 139.874,199.342 140.081,201.600 140.549 M209.200 201.973 C 220.996 203.390,226.556 207.195,229.014 215.531 C 229.382 216.779,229.844 218.322,230.041 218.960 C 231.701 224.329,229.151 234.481,225.453 237.227 C 221.665 240.041,211.832 243.855,205.600 244.929 C 205.050 245.024,203.250 245.374,201.600 245.708 C 194.870 247.069,191.311 247.347,180.244 247.373 L 169.000 247.400 168.896 224.800 C 168.839 212.370,168.887 201.954,169.002 201.653 C 169.263 200.970,203.092 201.239,209.200 201.973 " stroke="none" fill="#fcfcfc" fill-rule="evenodd"></path><path id="path1" d="M182.800 18.218 C 165.837 20.093,153.328 22.966,139.200 28.232 C 82.344 49.422,38.155 101.253,26.860 160.000 C 25.967 164.642,25.465 167.874,24.313 176.400 C 23.637 181.409,23.650 204.660,24.333 210.400 C 30.158 259.367,51.206 297.852,89.916 330.313 C 109.211 346.494,135.474 360.326,152.400 363.223 C 153.610 363.430,155.590 363.784,156.800 364.010 C 172.696 366.978,208.254 368.038,223.800 366.007 C 225.340 365.805,228.220 365.440,230.200 365.195 C 239.766 364.009,252.762 360.852,260.600 357.809 C 262.140 357.211,264.840 356.169,266.600 355.493 C 270.768 353.892,285.807 346.272,289.400 343.941 C 290.940 342.942,293.730 341.154,295.600 339.969 C 329.397 318.540,356.254 282.088,368.369 241.200 C 370.426 234.261,370.245 234.943,371.600 229.000 C 372.385 225.558,372.714 223.889,373.179 221.000 C 373.427 219.460,373.794 217.210,373.995 216.000 C 376.596 200.315,376.235 177.140,373.180 163.800 C 372.979 162.920,372.546 160.850,372.218 159.200 C 367.509 135.478,357.014 110.937,343.400 91.808 C 333.565 77.989,319.956 63.745,307.800 54.546 C 301.826 50.026,293.017 44.009,289.600 42.116 C 288.390 41.445,285.870 40.039,284.000 38.990 C 273.913 33.335,259.290 27.323,248.400 24.355 C 239.615 21.961,235.730 21.069,229.200 19.947 C 215.793 17.645,194.997 16.870,182.800 18.218 M207.200 124.395 C 228.224 126.933,236.304 132.274,241.403 147.000 C 246.161 160.746,243.913 170.996,234.022 180.645 C 228.098 186.423,228.212 187.108,236.451 195.346 C 243.791 202.683,246.224 206.128,248.385 212.240 C 253.473 226.629,249.714 241.523,237.928 253.672 C 230.987 260.828,228.087 261.332,185.400 262.802 C 178.800 263.030,169.170 263.410,164.000 263.647 C 158.830 263.884,153.430 264.016,152.000 263.939 L 149.400 263.800 149.297 194.200 C 149.241 155.920,149.289 124.351,149.405 124.047 C 149.673 123.342,201.043 123.651,207.200 124.395 M169.005 140.044 C 168.888 140.350,168.839 149.780,168.896 161.000 L 169.000 181.400 181.800 181.400 C 199.067 181.400,204.072 180.611,211.862 176.660 C 223.174 170.922,226.348 155.986,218.023 147.661 C 214.779 144.417,210.190 142.526,200.400 140.399 C 196.899 139.639,169.280 139.326,169.005 140.044 M168.800 224.400 L 168.800 247.200 180.454 247.200 C 186.864 247.200,193.299 247.012,194.754 246.783 C 200.608 245.860,202.663 245.507,204.000 245.196 C 204.770 245.016,206.390 244.654,207.600 244.391 C 214.511 242.889,223.269 239.143,226.137 236.463 C 233.071 229.984,230.991 212.125,222.627 206.317 C 216.939 202.367,211.086 201.600,186.632 201.600 L 168.800 201.600 168.800 224.400 " stroke="none" fill="#f4f4f4" fill-rule="evenodd"></path><path id="path2" d="" stroke="none" fill="#fc100f8" fill-rule="evenodd"></path><path id="path3" d="M198.300 17.482 C 198.795 17.578,199.605 17.578,200.100 17.482 C 200.595 17.387,200.190 17.309,199.200 17.309 C 198.210 17.309,197.805 17.387,198.300 17.482 M324.600 69.600 C 326.128 71.140,327.469 72.400,327.579 72.400 C 327.689 72.400,326.528 71.140,325.000 69.600 C 323.472 68.060,322.131 66.800,322.021 66.800 C 321.911 66.800,323.072 68.060,324.600 69.600 M191.505 123.883 C 192.002 123.979,192.722 123.975,193.105 123.875 C 193.487 123.775,193.080 123.696,192.200 123.701 C 191.320 123.705,191.007 123.787,191.505 123.883 M243.693 159.600 C 243.693 160.370,243.775 160.685,243.876 160.300 C 243.976 159.915,243.976 159.285,243.876 158.900 C 243.775 158.515,243.693 158.830,243.693 159.600 M375.714 187.800 C 375.717 188.900,375.795 189.303,375.887 188.695 C 375.979 188.086,375.977 187.186,375.882 186.695 C 375.787 186.203,375.711 186.700,375.714 187.800 M375.701 196.600 C 375.705 197.480,375.787 197.793,375.883 197.295 C 375.979 196.798,375.975 196.078,375.875 195.695 C 375.775 195.313,375.696 195.720,375.701 196.600 M176.674 201.499 C 180.894 201.564,187.914 201.564,192.274 201.500 C 196.633 201.435,193.180 201.382,184.600 201.382 C 176.020 201.382,172.453 201.435,176.674 201.499 M250.493 225.200 C 250.493 225.970,250.575 226.285,250.676 225.900 C 250.776 225.515,250.776 224.885,250.676 224.500 C 250.575 224.115,250.493 224.430,250.493 225.200 M173.723 247.499 C 176.320 247.569,180.460 247.568,182.923 247.498 C 185.385 247.428,183.260 247.371,178.200 247.372 C 173.140 247.372,171.125 247.429,173.723 247.499 M71.600 313.400 C 72.346 314.170,73.047 314.800,73.157 314.800 C 73.267 314.800,72.746 314.170,72.000 313.400 C 71.254 312.630,70.553 312.000,70.443 312.000 C 70.333 312.000,70.854 312.630,71.600 313.400 " stroke="none" fill="#f4fcf8" fill-rule="evenodd"></path><path id="path4" d="" stroke="none" fill="#f4f4fc" fill-rule="evenodd"></path></g></svg>