<svg id="svg" version="1.1" xmlns="http://www.w3.org/2000/svg" xmlns:xlink="http://www.w3.org/1999/xlink" width="400" height="400" viewBox="0, 0, 400,400"><g id="svgg"><path id="path0" d="M0.000 200.000 L 0.000 400.000 200.000 400.000 L 400.000 400.000 400.000 200.000 L 400.000 0.000 200.000 0.000 L 0.000 0.000 0.000 200.000 M206.400 80.618 C 224.902 82.070,226.675 82.296,235.800 84.363 C 249.670 87.504,258.130 92.335,265.268 101.191 C 270.262 107.388,276.549 121.530,277.986 129.800 C 278.253 131.340,278.636 133.355,278.836 134.277 C 279.394 136.849,279.255 146.608,278.607 150.267 C 276.697 161.064,271.905 169.435,262.524 178.363 C 252.035 188.345,252.192 189.336,266.528 203.545 C 278.279 215.192,283.135 221.895,286.645 231.311 C 286.991 232.240,287.435 233.360,287.632 233.800 C 287.829 234.240,288.276 235.680,288.625 237.000 C 294.606 259.586,289.974 279.854,274.505 298.793 C 259.966 316.594,255.418 317.731,190.400 319.833 C 167.702 320.567,151.684 321.172,123.800 322.351 C 120.060 322.509,116.775 322.565,116.500 322.476 C 116.101 322.347,116.000 297.730,116.000 201.157 L 116.000 80.000 157.300 80.003 C 190.695 80.005,200.093 80.123,206.400 80.618 M149.784 107.300 C 149.679 107.575,149.640 124.090,149.697 144.000 L 149.800 180.200 167.600 180.312 C 201.012 180.523,216.208 177.890,228.011 169.843 C 248.004 156.213,248.737 127.626,229.383 116.345 C 216.548 108.863,203.278 106.804,167.887 106.801 C 153.925 106.800,149.933 106.910,149.784 107.300 M149.800 214.458 C 149.687 214.756,149.640 232.820,149.697 254.600 L 149.800 294.200 165.400 294.324 C 208.725 294.669,245.796 284.471,252.754 270.293 C 258.650 258.280,257.304 240.545,249.641 229.260 C 243.834 220.708,237.237 217.691,218.800 215.151 C 210.860 214.058,150.185 213.448,149.800 214.458 " stroke="none" fill="#f4f4f4" fill-rule="evenodd"></path><path id="path1" d="M116.267 80.267 C 115.585 80.948,115.975 322.016,116.658 322.278 C 117.020 322.417,121.925 322.320,127.558 322.064 C 133.191 321.808,142.300 321.418,147.800 321.197 C 153.300 320.977,162.030 320.619,167.200 320.401 C 172.370 320.184,183.350 319.827,191.600 319.607 C 248.922 318.084,258.169 316.226,269.850 303.886 C 288.370 284.321,295.071 261.016,288.767 238.098 C 288.298 236.394,287.770 234.640,287.594 234.200 C 287.418 233.760,286.991 232.640,286.645 231.711 C 283.090 222.175,278.531 215.861,266.340 203.593 C 252.577 189.745,252.137 188.166,259.950 180.679 C 271.180 169.917,275.102 163.900,277.728 153.400 C 280.977 140.413,278.466 125.222,270.558 110.030 C 263.414 96.303,253.719 88.864,238.000 85.046 C 227.321 82.453,222.860 81.896,202.400 80.606 C 192.608 79.988,116.844 79.690,116.267 80.267 M195.800 107.185 C 222.481 109.575,236.692 116.896,242.023 131.000 C 244.040 136.335,243.889 146.049,241.689 152.473 C 235.679 170.020,219.304 178.474,187.600 180.398 C 180.468 180.831,151.270 180.955,150.233 180.557 C 149.381 180.230,149.250 107.027,150.100 106.638 C 150.945 106.252,190.694 106.728,195.800 107.185 M206.429 214.012 C 235.852 215.656,245.619 219.860,252.396 233.800 C 259.577 248.569,257.587 268.797,248.212 276.339 C 241.737 281.548,227.578 287.128,213.400 290.059 C 211.200 290.514,208.680 291.049,207.800 291.248 C 197.173 293.651,187.560 294.400,167.357 294.400 L 149.600 294.400 149.600 254.233 C 149.600 222.474,149.705 214.024,150.100 213.865 C 151.059 213.478,199.116 213.603,206.429 214.012 " stroke="none" fill="#fcfcfc" fill-rule="evenodd"></path><path id="path2" d="M196.691 80.289 C 197.401 80.377,198.661 80.379,199.491 80.292 C 200.321 80.205,199.740 80.133,198.200 80.131 C 196.660 80.129,195.981 80.200,196.691 80.289 M203.300 80.687 C 203.905 80.778,204.895 80.778,205.500 80.687 C 206.105 80.595,205.610 80.520,204.400 80.520 C 203.190 80.520,202.695 80.595,203.300 80.687 M210.100 81.076 C 210.485 81.176,211.115 81.176,211.500 81.076 C 211.885 80.975,211.570 80.893,210.800 80.893 C 210.030 80.893,209.715 80.975,210.100 81.076 M261.400 97.200 C 262.706 98.520,263.865 99.600,263.975 99.600 C 264.085 99.600,263.106 98.520,261.800 97.200 C 260.494 95.880,259.335 94.800,259.225 94.800 C 259.115 94.800,260.094 95.880,261.400 97.200 M158.700 106.700 C 163.375 106.764,171.025 106.764,175.700 106.700 C 180.375 106.636,176.550 106.583,167.200 106.583 C 157.850 106.583,154.025 106.636,158.700 106.700 M189.300 107.087 C 189.905 107.178,190.895 107.178,191.500 107.087 C 192.105 106.995,191.610 106.920,190.400 106.920 C 189.190 106.920,188.695 106.995,189.300 107.087 M196.100 107.476 C 196.485 107.576,197.115 107.576,197.500 107.476 C 197.885 107.375,197.570 107.293,196.800 107.293 C 196.030 107.293,195.715 107.375,196.100 107.476 M200.100 107.876 C 200.485 107.976,201.115 107.976,201.500 107.876 C 201.885 107.775,201.570 107.693,200.800 107.693 C 200.030 107.693,199.715 107.775,200.100 107.876 M278.901 136.600 C 278.905 137.480,278.987 137.793,279.083 137.295 C 279.179 136.798,279.175 136.078,279.075 135.695 C 278.975 135.313,278.896 135.720,278.901 136.600 M243.320 141.200 C 243.320 142.410,243.395 142.905,243.487 142.300 C 243.578 141.695,243.578 140.705,243.487 140.100 C 243.395 139.495,243.320 139.990,243.320 141.200 M262.000 178.600 C 261.028 179.590,260.323 180.400,260.433 180.400 C 260.543 180.400,261.428 179.590,262.400 178.600 C 263.372 177.610,264.077 176.800,263.967 176.800 C 263.857 176.800,262.972 177.610,262.000 178.600 M158.727 180.700 C 163.417 180.764,170.977 180.764,175.527 180.699 C 180.077 180.635,176.240 180.583,167.000 180.583 C 157.760 180.583,154.037 180.636,158.727 180.700 M254.901 188.200 C 254.905 189.080,254.987 189.393,255.083 188.895 C 255.179 188.398,255.175 187.678,255.075 187.295 C 254.975 186.913,254.896 187.320,254.901 188.200 M260.200 197.600 C 261.059 198.480,261.852 199.200,261.962 199.200 C 262.072 199.200,261.459 198.480,260.600 197.600 C 259.741 196.720,258.948 196.000,258.838 196.000 C 258.728 196.000,259.341 196.720,260.200 197.600 M265.800 203.200 C 267.106 204.520,268.265 205.600,268.375 205.600 C 268.485 205.600,267.506 204.520,266.200 203.200 C 264.894 201.880,263.735 200.800,263.625 200.800 C 263.515 200.800,264.494 201.880,265.800 203.200 M274.200 211.600 C 275.059 212.480,275.852 213.200,275.962 213.200 C 276.072 213.200,275.459 212.480,274.600 211.600 C 273.741 210.720,272.948 210.000,272.838 210.000 C 272.728 210.000,273.341 210.720,274.200 211.600 M163.329 213.900 C 170.550 213.961,182.250 213.961,189.329 213.900 C 196.408 213.839,190.500 213.789,176.200 213.789 C 161.900 213.789,156.108 213.839,163.329 213.900 M205.900 214.289 C 206.615 214.378,207.785 214.378,208.500 214.289 C 209.215 214.201,208.630 214.128,207.200 214.128 C 205.770 214.128,205.185 214.201,205.900 214.289 M256.548 252.800 C 256.548 255.110,256.614 256.055,256.695 254.900 C 256.776 253.745,256.776 251.855,256.695 250.700 C 256.614 249.545,256.548 250.490,256.548 252.800 M290.901 250.600 C 290.905 251.480,290.987 251.793,291.083 251.295 C 291.179 250.798,291.175 250.078,291.075 249.695 C 290.975 249.313,290.896 249.720,290.901 250.600 M290.893 259.600 C 290.893 260.370,290.975 260.685,291.076 260.300 C 291.176 259.915,291.176 259.285,291.076 258.900 C 290.975 258.515,290.893 258.830,290.893 259.600 M188.705 293.883 C 189.202 293.979,189.922 293.975,190.305 293.875 C 190.687 293.775,190.280 293.696,189.400 293.701 C 188.520 293.705,188.207 293.787,188.705 293.883 M184.705 294.283 C 185.202 294.379,185.922 294.375,186.305 294.275 C 186.687 294.175,186.280 294.096,185.400 294.101 C 184.520 294.105,184.207 294.187,184.705 294.283 M269.200 304.600 C 268.228 305.590,267.523 306.400,267.633 306.400 C 267.743 306.400,268.628 305.590,269.600 304.600 C 270.572 303.610,271.277 302.800,271.167 302.800 C 271.057 302.800,270.172 303.610,269.200 304.600 M232.305 317.883 C 232.802 317.979,233.522 317.975,233.905 317.875 C 234.287 317.775,233.880 317.696,233.000 317.701 C 232.120 317.705,231.807 317.787,232.305 317.883 M227.305 318.287 C 227.914 318.379,228.814 318.377,229.305 318.282 C 229.797 318.187,229.300 318.111,228.200 318.114 C 227.100 318.117,226.697 318.195,227.305 318.287 M218.705 318.683 C 219.202 318.779,219.922 318.775,220.305 318.675 C 220.687 318.575,220.280 318.496,219.400 318.501 C 218.520 318.505,218.207 318.587,218.705 318.683 M212.505 319.087 C 213.114 319.179,214.014 319.177,214.505 319.082 C 214.997 318.987,214.500 318.911,213.400 318.914 C 212.300 318.917,211.897 318.995,212.505 319.087 M198.905 319.487 C 199.514 319.579,200.414 319.577,200.905 319.482 C 201.397 319.387,200.900 319.311,199.800 319.314 C 198.700 319.317,198.297 319.395,198.905 319.487 M184.691 319.889 C 185.401 319.977,186.661 319.979,187.491 319.892 C 188.321 319.805,187.740 319.733,186.200 319.731 C 184.660 319.729,183.981 319.800,184.691 319.889 M173.507 320.290 C 174.226 320.379,175.306 320.377,175.907 320.286 C 176.508 320.195,175.920 320.122,174.600 320.124 C 173.280 320.126,172.788 320.201,173.507 320.290 M164.691 320.689 C 165.401 320.777,166.661 320.779,167.491 320.692 C 168.321 320.605,167.740 320.533,166.200 320.531 C 164.660 320.529,163.981 320.600,164.691 320.689 M152.707 321.090 C 153.426 321.179,154.506 321.177,155.107 321.086 C 155.708 320.995,155.120 320.922,153.800 320.924 C 152.480 320.926,151.988 321.001,152.707 321.090 M144.707 321.490 C 145.426 321.579,146.506 321.577,147.107 321.486 C 147.708 321.395,147.120 321.322,145.800 321.324 C 144.480 321.326,143.988 321.401,144.707 321.490 M132.707 321.890 C 133.426 321.979,134.506 321.977,135.107 321.886 C 135.708 321.795,135.120 321.722,133.800 321.724 C 132.480 321.726,131.988 321.801,132.707 321.890 M125.305 322.287 C 125.914 322.379,126.814 322.377,127.305 322.282 C 127.797 322.187,127.300 322.111,126.200 322.114 C 125.100 322.117,124.697 322.195,125.305 322.287 " stroke="none" fill="#f8f4f4" fill-rule="evenodd"></path><path id="path3" d="" stroke="none" fill="#f4fcf8" fill-rule="evenodd"></path><path id="path4" d="" stroke="none" fill="#f4f4fc" fill-rule="evenodd"></path></g></svg>